<svg id="Layer_1" data-name="Layer 1" xmlns="http://www.w3.org/2000/svg" viewBox="0 0 457 496.29"><defs><style>.cls-1{font-size:56.38px;font-family:Calibri-Bold, Calibri;font-weight:700;}.cls-2{letter-spacing:-0.02em;}.cls-3{letter-spacing:-0.03em;}.cls-4{letter-spacing:-0.03em;}</style></defs><title>Asset 1</title><path d="M455.61,0c-8.32,18.57-16.49,37.22-25,55.7Q331.85,270,233,484.2c-1.44,3.11-2.93,6.2-4.78,10.09-1.12-2.21-1.88-3.61-2.55-5.06Q114.43,248.15,3.25,7.06A54,54,0,0,1,1.07,0H84.62c7,17.05,14,34.1,21.33,51.73H72.85c52.06,112.68,103.79,224.67,156,337.64l157-338.86h-35.7L372.06,0Z"/><path d="M103.22,19.62V13.53h41.26v6.09Z"/><path d="M144.55,26.65v5.87H103.24V26.65Z"/><path d="M310.24,20.62V14.53H351.5v6.09Z"/><path d="M351.58,27.65v5.87H310.26V27.65Z"/><path d="M325.91,96.84C293.5,167,261.26,236.73,228.65,307.3l-98-210.46Zm-103,46.55V212.2H234V143.84a7,7,0,0,1,1.35-.38q7.29-.06,14.57-.08c7.78,0,7.85-.07,6.88-7.91,0-.26-.25-.49-.5-1H200v8.89Z"/><text class="cls-1" transform="translate(165.28 44.18) scale(1.15 1)"><tspan class="cls-2">2</tspan><tspan class="cls-3" x="27.57" y="0">0</tspan><tspan class="cls-4" x="54.33" y="0">1</tspan><tspan x="81.27" y="0">4</tspan></text></svg>